<svg width="56" height="56" viewBox="0 0 56 56" fill="none" xmlns="http://www.w3.org/2000/svg">
<circle cx="28" cy="28" r="28" fill="#151B26"/>
<path fill-rule="evenodd" clip-rule="evenodd" d="M41 28C41 35.1797 35.1797 41 28 41C20.8203 41 15 35.1797 15 28C15 20.8203 20.8203 15 28 15C35.1797 15 41 20.8203 41 28ZM29 21C29 20.4477 28.5523 20 28 20C27.4477 20 27 20.4477 27 21V28.8C27 29.1788 27.214 29.525 27.5528 29.6944L32.7528 32.2944C33.2468 32.5414 33.8474 32.3412 34.0944 31.8472C34.3414 31.3532 34.1412 30.7526 33.6472 30.5056L29 28.182V21Z" fill="url(#paint0_linear_2503_264)"/>
<defs>
<linearGradient id="paint0_linear_2503_264" x1="39.1429" y1="17.3636" x2="17.3636" y2="39.3117" gradientUnits="userSpaceOnUse">
<stop stop-color="#5390E3"/>
<stop offset="1" stop-color="#1357B3"/>
</linearGradient>
</defs>
</svg>
