<svg width="40" height="40" viewBox="0 0 40 40" fill="none" xmlns="http://www.w3.org/2000/svg">
<path d="M38.8548 1.1566C37.8548 0.134597 36.3748 -0.243403 34.9948 0.156597L2.81484 9.4546C1.35884 9.8586 0.32684 11.0126 0.0488403 12.4766C-0.23516 13.9686 0.75684 15.8646 2.05284 16.6566L12.1148 22.8006C13.1468 23.4326 14.4788 23.2746 15.3328 22.4186L26.8548 10.8966C27.4348 10.2946 28.3948 10.2946 28.9748 10.8966C29.5548 11.4746 29.5548 12.4166 28.9748 13.0166L17.4328 24.5386C16.5768 25.3946 16.4168 26.7226 17.0468 27.7566L23.1948 37.8566C23.9148 39.0546 25.1548 39.7366 26.5148 39.7366C26.6748 39.7366 26.8548 39.7366 27.0148 39.7146C28.5748 39.5166 29.8148 38.4546 30.2748 36.9546L39.8148 5.0166C40.2348 3.6566 39.8548 2.1766 38.8548 1.1566Z" fill="url(#paint0_linear_214_12)"/>
<path opacity="0.4" d="M14.9028 34.2845C15.4868 34.8705 15.4868 35.8205 14.9028 36.4065L12.1708 39.1365C11.8788 39.4305 11.4948 39.5765 11.1108 39.5765C10.7268 39.5765 10.3428 39.4305 10.0508 39.1365C9.46479 38.5505 9.46479 37.6025 10.0508 37.0165L12.7808 34.2845C13.3668 33.7005 14.3168 33.7005 14.9028 34.2845ZM13.3354 26.7085C13.9194 27.2945 13.9194 28.2445 13.3354 28.8305L10.6034 31.5605C10.3114 31.8545 9.92738 32.0005 9.54338 32.0005C9.15938 32.0005 8.77539 31.8545 8.48339 31.5605C7.89739 30.9745 7.89739 30.0265 8.48339 29.4405L11.2134 26.7085C11.7994 26.1245 12.7494 26.1245 13.3354 26.7085ZM5.81299 24.3237C6.39699 24.9097 6.39699 25.8597 5.81299 26.4457L3.08098 29.1757C2.78898 29.4697 2.40498 29.6157 2.02098 29.6157C1.63698 29.6157 1.25298 29.4697 0.960984 29.1757C0.374984 28.5897 0.374984 27.6417 0.960984 27.0557L3.69098 24.3237C4.27698 23.7397 5.22699 23.7397 5.81299 24.3237Z" fill="url(#paint1_linear_214_12)"/>
<defs>
<linearGradient id="paint0_linear_214_12" x1="39.9836" y1="-2.36849e-06" x2="0.247794" y2="39.9829" gradientUnits="userSpaceOnUse">
<stop stop-color="#916BE3"/>
<stop offset="1" stop-color="#61CCE3"/>
</linearGradient>
<linearGradient id="paint1_linear_214_12" x1="15.3408" y1="23.8857" x2="-0.324429" y2="38.6809" gradientUnits="userSpaceOnUse">
<stop stop-color="#916BE3"/>
<stop offset="1" stop-color="#61CCE3"/>
</linearGradient>
</defs>
</svg>
